<?xml version="1.0" encoding="UTF-8"?>
<svg version="1.1" xmlns="http://www.w3.org/2000/svg" width="99" height="99">
<path d="M0 0 C0.495 0.99 0.495 0.99 1 2 C8.98617794 4.51416713 18.81985632 5.95324795 27 4 C26.9278125 4.63808594 26.855625 5.27617187 26.78125 5.93359375 C26.64203125 7.17302734 26.64203125 7.17302734 26.5 8.4375 C26.36078125 9.67306641 26.36078125 9.67306641 26.21875 10.93359375 C25.96484487 13.33113107 25.96484487 13.33113107 26.4375 15.625 C27 18 27 18 27.4375 21.25 C27.92818644 25.04354038 27.92818644 25.04354038 29.0625 28.8125 C30.5813145 34.73817778 30.89010562 40.51707379 28.8125 46.3125 C26.79625745 49.30210103 24.63940765 51.54055196 22 54 C20.83256901 55.2075949 19.66594272 56.4159681 18.5 57.625 C14.99833312 61.12666688 11.72861277 63.42379574 7 65 C-1.29058554 64.33623256 -7.30917418 62.21385719 -12.875 55.875 C-15 53 -15 53 -15 51 C-15.45890625 51.433125 -15.9178125 51.86625 -16.390625 52.3125 C-17.00421875 52.869375 -17.6178125 53.42625 -18.25 54 C-18.85328125 54.556875 -19.4565625 55.11375 -20.078125 55.6875 C-22 57 -22 57 -26 57 C-25.55530671 51.96014269 -23.28656638 49.62365012 -20 46 C-21.051875 45.7215625 -21.051875 45.7215625 -22.125 45.4375 C-25.53692175 43.73153913 -27.2195273 41.69556448 -29.5703125 38.75390625 C-30.92755478 36.9613428 -30.92755478 36.9613428 -32.65625 35.68359375 C-34.73492824 33.07920328 -34.39709304 30.76976995 -34.375 27.5 C-34.38660156 25.78296875 -34.38660156 25.78296875 -34.3984375 24.03125 C-33.95607718 20.66584207 -33.57043909 20.04088104 -31 18 C-29.8679469 16.69357854 -28.74331784 15.38069818 -27.625 14.0625 C-24.95975971 10.99326539 -22.24934189 8.45896143 -19 6 C-18.38125 5.29875 -17.7625 4.5975 -17.125 3.875 C-12.22455898 -0.44891855 -6.17195357 -0.21655977 0 0 Z M-7 1 C-7 1.33 -7 1.66 -7 2 C-5.35 2 -3.7 2 -2 2 C-2 1.67 -2 1.34 -2 1 C-3.65 1 -5.3 1 -7 1 Z M15 6 C15 6.33 15 6.66 15 7 C16.65 7 18.3 7 20 7 C20 6.67 20 6.34 20 6 C18.35 6 16.7 6 15 6 Z M26 20 C27 22 27 22 27 22 Z M28 41 C29 43 29 43 29 43 Z M27 44 C28 46 28 46 28 46 Z " fill="#F4F4F4" transform="translate(49,19)"/>
<path d="M0 0 C2.31 0 4.62 0 7 0 C7 0.33 7 0.66 7 1 C4.69 1 2.38 1 0 1 C0 0.67 0 0.34 0 0 Z " fill="#000000" transform="translate(49,84)"/>
<path d="M0 0 C0.33 0 0.66 0 1 0 C1 2.31 1 4.62 1 7 C0.67 7 0.34 7 0 7 C0 4.69 0 2.38 0 0 Z " fill="#000000" transform="translate(14,43)"/>
<path d="M0 0 C1 4 1 4 1 4 Z " fill="#000000" transform="translate(79,52)"/>
<path d="M0 0 C4 1 4 1 4 1 Z " fill="#000000" transform="translate(50,20)"/>
<path d="" fill="#000000" transform="translate(0,0)"/>
<path d="M0 0 C2 1 2 1 2 1 Z " fill="#000000" transform="translate(46,83)"/>
<path d="M0 0 C2 1 2 1 2 1 Z " fill="#000000" transform="translate(24,77)"/>
<path d="" fill="#000000" transform="translate(0,0)"/>
<path d="" fill="#000000" transform="translate(0,0)"/>
<path d="" fill="#000000" transform="translate(0,0)"/>
<path d="M0 0 C2 1 2 1 2 1 Z " fill="#000000" transform="translate(58,22)"/>
<path d="M0 0 C2 1 2 1 2 1 Z " fill="#000000" transform="translate(73,21)"/>
<path d="" fill="#000000" transform="translate(0,0)"/>
<path d="" fill="#000000" transform="translate(0,0)"/>
<path d="" fill="#000000" transform="translate(0,0)"/>
</svg>
