<?xml version="1.0" encoding="UTF-8"?>
<svg version="1.1" xmlns="http://www.w3.org/2000/svg" width="114" height="114">
<path d="M0 0 C3.23294692 0.70967127 4.4596062 2.07018142 6.5625 4.5625 C6.93375 4.0675 7.305 3.5725 7.6875 3.0625 C9.5625 1.5625 9.5625 1.5625 12.375 0.9375 C16.50973358 1.74823207 17.90773299 3.41831177 20.4296875 6.6796875 C21.91588469 9.14984973 22.20559098 10.74897698 21.5625 13.5625 C20.9025 14.2225 20.2425 14.8825 19.5625 15.5625 C19.72916667 17.64583333 19.72916667 17.64583333 20.5625 19.5625 C21.2225 19.8925 21.8825 20.2225 22.5625 20.5625 C22.5625 22.2125 22.5625 23.8625 22.5625 25.5625 C20.9125 26.2225 19.2625 26.8825 17.5625 27.5625 C17.5625 28.2225 17.5625 28.8825 17.5625 29.5625 C16.655 29.85125 15.7475 30.14 14.8125 30.4375 C12.24047092 31.32781776 9.94903234 32.27744413 7.5625 33.5625 C8.68104586 37.28864153 8.68104586 37.28864153 11.5625 39.5625 C11.25 41.4375 11.25 41.4375 10.5625 43.5625 C9.5725 44.2225 8.5825 44.8825 7.5625 45.5625 C7.5625 46.5525 7.5625 47.5425 7.5625 48.5625 C6.9025 48.5625 6.2425 48.5625 5.5625 48.5625 C5.5625 49.2225 5.5625 49.8825 5.5625 50.5625 C1.84993521 50.7687536 -0.17659781 50.24554629 -3.4375 48.5625 C-4.7575 48.5625 -6.0775 48.5625 -7.4375 48.5625 C-8.0975 51.8625 -8.7575 55.1625 -9.4375 58.5625 C-13.8116638 58.73073707 -16.61809182 58.65701417 -20.4375 56.5625 C-21.448125 56.3975 -22.45875 56.2325 -23.5 56.0625 C-26.4375 55.5625 -26.4375 55.5625 -29.4375 53.5625 C-29.664375 54.14 -29.89125 54.7175 -30.125 55.3125 C-31.78598222 58.15989809 -33.75274561 59.68317193 -36.4375 61.5625 C-37.0975 61.5625 -37.7575 61.5625 -38.4375 61.5625 C-37.24529684 58.63618315 -36.20548082 57.36285559 -33.75 55.25 C-31.06381974 52.71913355 -31.06381974 52.71913355 -31.4375 49.125 C-32.30498352 45.56668412 -32.30498352 45.56668412 -34 42.5625 C-35.69975834 39.01517824 -35.67064275 36.44821247 -35.4375 32.5625 C-32.1375 31.9025 -28.8375 31.2425 -25.4375 30.5625 C-25.4375 26.28890293 -26.2401706 21.66762938 -27.4375 17.5625 C-26.86 17.315 -26.2825 17.0675 -25.6875 16.8125 C-23.30483113 15.6306388 -23.30483113 15.6306388 -21.375 13.4375 C-19.4375 11.5625 -19.4375 11.5625 -16.4375 11.5625 C-15.798125 12.243125 -15.15875 12.92375 -14.5 13.625 C-13.819375 14.264375 -13.13875 14.90375 -12.4375 15.5625 C-10.21891747 15.42608623 -10.21891747 15.42608623 -8.4375 14.5625 C-8.31375 13.634375 -8.19 12.70625 -8.0625 11.75 C-7.4375 8.5625 -7.4375 8.5625 -5.4375 5.5625 C-5.004375 4.675625 -4.57125 3.78875 -4.125 2.875 C-2.4375 0.5625 -2.4375 0.5625 0 0 Z " fill="#EDEDED" transform="translate(66.4375,23.4375)"/>
<path d="" fill="#000000" transform="translate(0,0)"/>
<path d="M0 0 C2 1 2 1 2 1 Z " fill="#000000" transform="translate(35,53)"/>
<path d="" fill="#000000" transform="translate(0,0)"/>
<path d="" fill="#000000" transform="translate(0,0)"/>
<path d="" fill="#000000" transform="translate(0,0)"/>
<path d="" fill="#000000" transform="translate(0,0)"/>
<path d="" fill="#000000" transform="translate(0,0)"/>
<path d="" fill="#000000" transform="translate(0,0)"/>
</svg>
